<svg width="197" height="147" viewBox="0 0 197 147" fill="none" xmlns="http://www.w3.org/2000/svg">
<path d="M23.9957 134.028C23.0218 135.136 21.5969 136.027 19.7212 136.704C17.8455 137.381 15.7894 137.72 13.553 137.72C10.1141 137.72 7.36664 136.642 5.31054 134.489C3.25446 132.336 2.15426 129.34 2.00997 125.501L1.99194 123.175C1.99194 120.529 2.44885 118.222 3.36266 116.254C4.27649 114.272 5.58108 112.753 7.27646 111.694C8.98385 110.625 10.9557 110.089 13.1922 110.089C16.4627 110.089 18.9998 110.859 20.8034 112.396C22.619 113.923 23.6771 116.204 23.9776 119.244H17.8815C17.6651 117.742 17.1962 116.673 16.4747 116.032C15.7533 115.393 14.7313 115.072 13.4087 115.072C11.8215 115.072 10.5951 115.761 9.72933 117.14C8.86361 118.517 8.42474 120.486 8.41272 123.046V124.67C8.41272 127.353 8.8576 129.37 9.74737 130.724C10.6492 132.066 12.062 132.735 13.9858 132.735C15.6331 132.735 16.8595 132.361 17.6651 131.61V127.439H13.2643V122.99H23.9957V134.028ZM39.2 123.009L37.198 122.861C35.2862 122.861 34.0597 123.477 33.5187 124.707V137.35H27.4405V117.379H33.1399L33.3383 119.945C34.3604 117.989 35.7852 117.011 37.6128 117.011C38.2621 117.011 38.8272 117.084 39.3081 117.232L39.2 123.009ZM47.8031 137.35H41.7069V117.379H47.8031V137.35ZM41.3463 112.23C41.3463 111.344 41.6589 110.618 42.2841 110.052C42.9093 109.486 43.7209 109.203 44.719 109.203C45.7169 109.203 46.5286 109.486 47.1538 110.052C47.779 110.618 48.0917 111.344 48.0917 112.23C48.0917 113.116 47.779 113.842 47.1538 114.408C46.5286 114.974 45.7169 115.257 44.719 115.257C43.7209 115.257 42.9093 114.974 42.2841 114.408C41.6589 113.842 41.3463 113.116 41.3463 112.23ZM58.6427 112.415V117.379H61.8531V121.699H58.6427V130.835C58.6427 131.586 58.7749 132.109 59.0394 132.404C59.304 132.699 59.827 132.847 60.6086 132.847C61.2097 132.847 61.7147 132.81 62.1236 132.735V137.184C61.0295 137.541 59.8872 137.72 58.6967 137.72C56.6046 137.72 55.0595 137.215 54.0616 136.206C53.0636 135.197 52.5646 133.665 52.5646 131.61V121.699H50.0756V117.379H52.5646V112.415H58.6427ZM75.6866 126.166H68.0574V137.35H65.821V110.476H74.3519C77.1535 110.476 79.3418 111.172 80.917 112.563C82.4921 113.953 83.2797 115.897 83.2797 118.395C83.2797 120.118 82.7867 121.637 81.8007 122.954C80.8148 124.27 79.4922 125.181 77.8328 125.686L84.398 137.11V137.35H82.0352L75.6866 126.166ZM68.0574 124.227H74.8569C76.7206 124.227 78.2176 123.685 79.3479 122.603C80.4781 121.52 81.0432 120.118 81.0432 118.395C81.0432 116.5 80.4541 115.029 79.2758 113.983C78.0974 112.938 76.4441 112.415 74.3159 112.415H68.0574V124.227ZM96.3737 137.72C94.7144 137.72 93.2115 137.301 91.8648 136.464C90.5301 135.627 89.4901 134.465 88.7446 132.976C87.9991 131.474 87.6263 129.795 87.6263 127.937V127.143C87.6263 125.224 87.9871 123.495 88.7085 121.957C89.442 120.419 90.458 119.214 91.7565 118.34C93.0552 117.454 94.462 117.011 95.977 117.011C98.3457 117.011 100.221 117.841 101.604 119.502C102.999 121.151 103.696 123.409 103.696 126.276V127.513H89.7726V127.937C89.7726 130.201 90.4039 132.09 91.6663 133.604C92.9409 135.104 94.5401 135.855 96.4639 135.855C97.6182 135.855 98.6343 135.64 99.512 135.209C100.402 134.779 101.207 134.09 101.929 133.142L103.281 134.194C101.694 136.544 99.3917 137.72 96.3737 137.72ZM95.977 118.893C94.3538 118.893 92.983 119.502 91.8648 120.72C90.7586 121.938 90.0852 123.575 89.8448 125.63H101.55V125.39C101.49 123.47 100.955 121.908 99.9449 120.702C98.9348 119.496 97.6123 118.893 95.977 118.893ZM120.217 137.35C120.001 136.722 119.862 135.794 119.803 134.563C119.044 135.573 118.077 136.354 116.899 136.907C115.732 137.449 114.494 137.72 113.184 137.72C111.307 137.72 109.786 137.184 108.62 136.113C107.466 135.043 106.889 133.69 106.889 132.053C106.889 130.109 107.676 128.571 109.252 127.439C110.838 126.306 113.045 125.74 115.871 125.74H119.784V123.47C119.784 122.043 119.351 120.923 118.486 120.111C117.632 119.287 116.382 118.874 114.734 118.874C113.231 118.874 111.987 119.268 111.001 120.056C110.015 120.843 109.522 121.791 109.522 122.898L107.358 122.88C107.358 121.293 108.079 119.92 109.522 118.764C110.964 117.595 112.738 117.011 114.843 117.011C117.019 117.011 118.733 117.57 119.983 118.691C121.245 119.797 121.895 121.348 121.931 123.341V132.791C121.931 134.723 122.129 136.169 122.526 137.129V137.35H120.217ZM113.436 135.763C114.879 135.763 116.165 135.406 117.295 134.693C118.438 133.979 119.267 133.025 119.784 131.831V127.439H115.924C113.773 127.463 112.089 127.87 110.875 128.657C109.66 129.432 109.053 130.503 109.053 131.868C109.053 132.988 109.456 133.917 110.262 134.656C111.079 135.394 112.137 135.763 113.436 135.763ZM126.836 127.18C126.836 124.079 127.509 121.613 128.856 119.779C130.215 117.934 132.055 117.011 134.376 117.011C137.008 117.011 139.016 118.075 140.399 120.204V109H142.546V137.35H140.526L140.435 134.693C139.052 136.711 137.021 137.72 134.34 137.72C132.091 137.72 130.275 136.797 128.892 134.951C127.522 133.092 126.836 130.589 126.836 127.439V127.18ZM129.019 127.568C129.019 130.115 129.517 132.126 130.516 133.604C131.514 135.067 132.921 135.799 134.736 135.799C137.393 135.799 139.281 134.6 140.399 132.201V122.824C139.281 120.228 137.405 118.93 134.773 118.93C132.957 118.93 131.544 119.662 130.534 121.127C129.523 122.579 129.019 124.726 129.019 127.568ZM155.784 137.72C154.125 137.72 152.622 137.301 151.275 136.464C149.941 135.627 148.9 134.465 148.155 132.976C147.409 131.474 147.037 129.795 147.037 127.937V127.143C147.037 125.224 147.397 123.495 148.118 121.957C148.852 120.419 149.868 119.214 151.167 118.34C152.466 117.454 153.872 117.011 155.387 117.011C157.756 117.011 159.632 117.841 161.015 119.502C162.409 121.151 163.107 123.409 163.107 126.276V127.513H149.182V127.937C149.182 130.201 149.814 132.09 151.076 133.604C152.351 135.104 153.95 135.855 155.874 135.855C157.028 135.855 158.044 135.64 158.923 135.209C159.812 134.779 160.618 134.09 161.339 133.142L162.691 134.194C161.105 136.544 158.801 137.72 155.784 137.72ZM155.387 118.893C153.764 118.893 152.393 119.502 151.275 120.72C150.168 121.938 149.495 123.575 149.255 125.63H160.96V125.39C160.9 123.47 160.365 121.908 159.356 120.702C158.345 119.496 157.022 118.893 155.387 118.893ZM176.327 119.262C175.87 119.176 175.383 119.133 174.866 119.133C173.519 119.133 172.377 119.521 171.439 120.296C170.514 121.058 169.852 122.172 169.455 123.636V137.35H167.308V117.379H169.419L169.455 120.554C170.598 118.192 172.431 117.011 174.957 117.011C175.558 117.011 176.032 117.09 176.381 117.25L176.327 119.262ZM191.441 132.274C191.441 131.179 191.008 130.299 190.142 129.635C189.288 128.971 187.996 128.454 186.265 128.085C184.534 127.703 183.186 127.272 182.225 126.792C181.275 126.301 180.565 125.704 180.096 125.002C179.639 124.301 179.411 123.452 179.411 122.455C179.411 120.88 180.054 119.582 181.341 118.56C182.627 117.527 184.275 117.011 186.283 117.011C188.459 117.011 190.202 117.564 191.513 118.672C192.835 119.767 193.497 121.2 193.497 122.973H191.333C191.333 121.803 190.852 120.832 189.89 120.056C188.94 119.281 187.738 118.893 186.283 118.893C184.864 118.893 183.722 119.219 182.856 119.872C182.002 120.511 181.576 121.348 181.576 122.381C181.576 123.378 181.929 124.154 182.64 124.707C183.361 125.249 184.666 125.747 186.553 126.202C188.453 126.657 189.872 127.143 190.81 127.66C191.76 128.177 192.463 128.798 192.919 129.525C193.377 130.25 193.605 131.13 193.605 132.164C193.605 133.849 192.938 135.197 191.603 136.206C190.28 137.215 188.55 137.72 186.409 137.72C184.137 137.72 182.291 137.159 180.872 136.04C179.465 134.908 178.762 133.48 178.762 131.758H180.926C181.01 133.049 181.54 134.058 182.513 134.785C183.499 135.498 184.797 135.855 186.409 135.855C187.912 135.855 189.126 135.517 190.053 134.84C190.978 134.163 191.441 133.308 191.441 132.274Z" fill="#F5F5F5"/>
<path d="M124.408 19.6875C124.408 8.81426 115.794 0 105.169 0C94.5441 0 85.931 8.81426 85.931 19.6875C85.931 30.5608 94.5441 39.375 105.169 39.375C115.794 39.375 124.408 30.5608 124.408 19.6875ZM100.678 49.4443C88.7887 41.9959 69.5303 39.9492 59.8391 39.3853C56.5826 39.1966 53.8672 41.7354 53.8672 44.9408V90.6322C53.8672 93.571 56.1898 96.0217 59.1757 96.1796C67.9252 96.6492 85.6264 98.3698 97.8608 104.676C99.7384 105.644 101.965 104.325 101.965 102.242V51.7945C101.963 50.8368 101.5 49.9591 100.678 49.4443ZM150.5 39.3853C140.81 39.9471 121.55 41.9959 109.662 49.4443C108.84 49.9591 108.378 50.8717 108.378 51.8294V102.236C108.378 104.325 110.61 105.646 112.494 104.676C124.727 98.376 142.418 96.6553 151.165 96.1858C154.15 96.0257 156.473 93.575 156.473 90.6363V44.9408C156.471 41.7354 153.756 39.1966 150.5 39.3853Z" fill="#F5F5F5"/>
</svg>
